<?xml version="1.0" encoding="UTF-8"?>
<svg id="Capa_1" data-name="Capa 1" xmlns="http://www.w3.org/2000/svg" viewBox="0 0 762.38 749.43">
  <defs>
    <style>
      .cls-1 {
        fill: #0876cc;
      }

      .cls-1, .cls-2 {
        stroke-width: 0px;
      }

      .cls-2 {
        fill: #fefefe;
      }
    </style>
  </defs>
  <path class="cls-1" d="M.05,372.34C.05,271.03.07,169.72.03,68.41c0-19.61,6.35-36.51,20.83-49.99C33.69,6.48,49.05.3,66.54.22,112.36,0,158.18.05,204,.03,288.15,0,372.3,0,456.45,0c23.99,0,47.99.11,71.98.03,14.97-.05,29.11,2.87,41.61,11.46,17.33,11.9,26.9,28.48,28.85,49.38.25,2.68.93,3.68,3.78,3.81,24,1.08,46.26,8.13,67.24,19.67,38.55,21.21,65.85,52.29,81.58,93.36,6.27,16.38,9.45,33.47,10.52,51.01,1.65,26.97-2.24,53.04-12.07,78.19-4.85,12.39-11.45,23.81-19.27,34.63-26.35,36.47-60.64,61.37-104.53,72.38-4.04,1.01-8.14,2.54-12.56,1.75-2.49-.44-4.36,1.8-6.72,2.45-1.53.42-.68,3.61-.68,5.55-.01,83.15,0,166.29.03,249.44,0,8.5-.13,16.96-2.69,25.2-8.06,26-25.69,41.93-51.6,49.13-5.3,1.47-10.79,1.96-16.29,1.96-117.81.02-235.62.02-353.42.02-36.49,0-72.98-.01-109.48,0-16.81,0-32.27-4.26-45.54-14.85-17.53-14-26.94-32.43-27.04-54.81-.3-63.65-.1-127.3-.1-190.95,0-38.82,0-77.65,0-116.47h-.01Z"/>
  <path class="cls-2" d="M39.78,374.12c0-100.97.08-201.93-.09-302.9-.03-15.32,9.69-27.13,22.85-30.76,3.55-.98,7.22-1.16,10.89-1.16,76.81,0,153.62,0,230.43,0,73.98,0,147.96-.01,221.93-.02,5.16,0,10.31.03,15.29,1.66,10.12,3.3,16.37,10.28,19.68,20.25.95,2.86.34,3.56-2.68,3.96-24.16,3.16-46.87,10.8-67.27,24.14-42.34,27.68-70.03,65.91-79.26,116.02-9.56,51.94.91,99.92,32.84,142.37,24.53,32.61,56.24,55.29,96.2,65.55,8.51,2.19,17.12,3.98,25.9,4.58,2.96.2,3.41,1.32,3.41,3.95-.04,85.47-.07,170.95.05,256.42.03,18.13-11.69,28.43-22.32,31.17-3.45.89-6.94.74-10.42.74-44.32.04-88.64.04-132.96.04-109.3,0-218.59,0-327.89-.06-4.8,0-9.62.29-14.39-1.01-12.17-3.33-20.71-13-21.88-25.56-1-10.8-.34-21.65-.34-32.47-.06-92.3-.04-184.61-.04-276.91h.07Z"/>
  <path class="cls-2" d="M585.06,101.79c77.52-.61,140.24,61.42,139.82,140.03-.42,76.92-62.85,137.46-137,138.38-75.62.95-139.93-60.02-141.11-138.18-.57-37.54,12.77-69.93,38.4-97.13,27.03-28.67,60.47-42.95,99.89-43.11Z"/>
  <path class="cls-1" d="M369.39,226.46c.06,5.45-1.94,10.01-5.77,13.86-46.64,46.88-93.25,93.78-139.89,140.65-9.58,9.63-22.1,10.3-31.51,1.05-22.44-22.06-44.58-44.43-66.8-66.7-3.19-3.2-5.96-6.75-7.04-11.28-2.12-8.89,2-18.14,10.19-22.95,7.78-4.58,16.88-3.49,23.78,3.25,8.58,8.38,16.93,17,25.4,25.49,9.06,9.08,18.19,18.09,27.17,27.24,1.69,1.72,2.51,1.71,4.23-.03,15.87-16.11,31.85-32.13,47.82-48.15,24.81-24.88,49.66-49.74,74.46-74.63,3.19-3.2,6.48-6.12,10.8-7.82,13.42-5.28,27.7,7.59,27.18,20.04Z"/>
  <path class="cls-1" d="M305.56,501.01c-57.15,0-114.3-.02-171.45.03-5.37,0-10.24-.97-13.89-5.21-4.69-5.45-5.63-11.73-2.72-18.15,2.91-6.43,8.15-9.64,15.45-9.63,44.99.06,89.97,0,134.96,0,69.81,0,139.62.08,209.43-.09,7.54-.02,12.76,3.58,16.37,9.14,5.32,8.18.06,20.25-9.31,23.08-2.77.84-5.57.83-8.4.83-56.82,0-113.63,0-170.45,0Z"/>
  <path class="cls-1" d="M252.73,588.96c-39.99,0-79.97.03-119.96-.02-9.04-.01-15.43-5.56-16.59-14.04-1.4-10.28,5.79-18.89,16.17-18.94,22.16-.12,44.32-.06,66.48-.07,57.31,0,114.62.02,171.94-.04,3.75,0,7.3.47,10.54,2.37,6.27,3.68,9.44,11.16,7.72,18-1.95,7.75-8.2,12.72-16.35,12.74-34.99.05-69.97.04-104.96.06-5,0-10,0-14.99,0v-.06Z"/>
  <path class="cls-1" d="M601.33,189.96c0,11.66.1,23.33-.07,34.99-.04,2.77.86,4.62,2.77,6.51,15.53,15.33,30.95,30.77,46.44,46.13,3.44,3.41,5.69,7.25,5.91,12.24.33,7.46-2.8,12.66-9.77,16.4-6.15,3.29-12.64,1.97-18.21-3.59-18.05-18-35.93-36.17-53.96-54.18-4.05-4.05-4.67-8.98-4.65-14.24.03-9.83.07-19.66.08-29.49.02-16.66.16-33.32-.03-49.98-.12-10.44,9.49-17.57,18.57-15.82,7.38,1.42,12.8,7.62,12.9,15.54.15,11.83.04,23.66.04,35.49,0,0-.01,0-.02,0Z"/>
</svg>